<?xml version="1.0" standalone="no"?>
<!DOCTYPE svg PUBLIC "-//W3C//DTD SVG 20010904//EN"
 "http://www.w3.org/TR/2001/REC-SVG-20010904/DTD/svg10.dtd">
<svg version="1.0" xmlns="http://www.w3.org/2000/svg"
 width="480.000000pt" height="480.000000pt" viewBox="0 0 480.000000 480.000000"
 preserveAspectRatio="xMidYMid meet">
<metadata>
Created by potrace 1.11, written by Peter Selinger 2001-2013
</metadata>
<g transform="translate(0.000000,480.000000) scale(0.100000,-0.100000)"
fill="#000000" stroke="none">
<path d="M0 2400 l0 -2400 419 0 c269 0 422 4 426 10 4 7 -135 10 -409 10
l-416 0 0 2380 0 2380 2380 0 2380 0 0 -2380 0 -2380 -1927 0 c-1228 0 -1933
-4 -1943 -10 -10 -6 673 -10 1938 -10 l1952 0 0 2400 0 2400 -2400 0 -2400 0
0 -2400z"/>
<path d="M2360 4671 c-176 -94 -1919 -1108 -1932 -1123 -17 -19 -18 -88 -18
-1145 0 -717 4 -1131 10 -1143 5 -10 121 -82 257 -161 137 -78 300 -172 363
-209 63 -37 205 -119 315 -182 110 -64 385 -222 610 -353 232 -134 421 -237
435 -238 28 0 1945 1102 1973 1135 16 19 17 88 17 1145 0 715 -4 1131 -10
1143 -9 18 -52 44 -380 232 -91 53 -481 278 -867 501 -386 223 -710 408 -720
411 -10 3 -34 -3 -53 -13z m397 -327 c197 -114 405 -234 463 -268 58 -34 315
-183 573 -331 l467 -270 0 -1075 0 -1075 -930 -537 -930 -537 -667 386 c-368
212 -735 424 -818 472 -82 48 -201 116 -262 151 l-113 65 0 1075 0 1075 928
536 c510 296 928 537 929 538 1 1 163 -92 360 -205z"/>
<path d="M1460 3535 c0 -20 5 -25 25 -25 20 0 25 5 25 25 0 20 -5 25 -25 25
-20 0 -25 -5 -25 -25z"/>
<path d="M1830 3534 c0 -9 9 -18 20 -21 18 -5 20 -14 20 -94 0 -72 -3 -89 -15
-89 -8 0 -15 -7 -15 -15 0 -11 12 -15 50 -15 38 0 50 4 50 15 0 8 -7 15 -15
15 -11 0 -15 12 -15 44 0 49 17 69 52 64 20 -3 23 -9 26 -55 2 -43 0 -53 -12
-53 -9 0 -16 -7 -16 -15 0 -11 12 -15 50 -15 38 0 50 4 50 15 0 8 -7 15 -15
15 -11 0 -15 12 -15 45 0 81 -33 116 -95 101 -24 -6 -25 -4 -25 34 l0 40 -40
0 c-30 0 -40 -4 -40 -16z"/>
<path d="M2786 3535 c4 -9 19 -15 35 -15 l29 0 0 -95 0 -95 -35 0 c-24 0 -35
-5 -35 -15 0 -12 16 -15 85 -15 69 0 85 3 85 15 0 10 -10 15 -29 15 -29 0 -29
1 -36 69 -4 39 -4 88 0 110 l7 41 -56 0 c-45 0 -54 -3 -50 -15z"/>
<path d="M3016 3535 c4 -9 19 -15 35 -15 l29 0 0 -95 0 -95 -35 0 c-24 0 -35
-5 -35 -15 0 -12 16 -15 85 -15 69 0 85 3 85 15 0 10 -10 15 -30 15 l-30 0 0
110 0 110 -55 0 c-44 0 -53 -3 -49 -15z"/>
<path d="M995 3521 c-73 -31 -70 -97 5 -120 84 -26 99 -43 56 -62 -31 -14 -76
1 -76 26 0 8 -9 15 -20 15 -17 0 -20 -7 -20 -40 0 -29 5 -43 17 -47 9 -4 18
-2 20 4 3 8 13 9 32 2 57 -20 121 33 102 84 -10 25 -36 37 -106 49 -24 4 -27
37 -4 51 23 14 67 1 74 -23 12 -37 35 -24 35 20 0 36 -2 39 -27 38 -16 0 -37
2 -48 5 -11 4 -29 2 -40 -2z"/>
<path d="M2373 3516 c-84 -37 -82 -177 3 -212 41 -17 75 -13 123 17 26 16 30
23 21 34 -10 12 -16 11 -43 -6 -67 -40 -127 -10 -127 63 0 80 83 108 119 41
17 -33 37 -19 36 27 0 37 -2 39 -30 39 -16 -1 -39 1 -50 5 -11 3 -34 -1 -52
-8z"/>
<path d="M1660 3495 c0 -16 -6 -25 -15 -25 -8 0 -15 -7 -15 -15 0 -8 7 -15 15
-15 11 0 15 -13 15 -52 0 -62 6 -73 44 -88 21 -8 39 -8 65 1 45 14 52 21 42
38 -7 11 -15 11 -44 1 -53 -20 -67 -9 -67 50 l0 50 45 0 c33 0 45 4 45 15 0
11 -12 15 -45 15 -41 0 -45 2 -45 25 0 18 -5 25 -20 25 -15 0 -20 -7 -20 -25z"/>
<path d="M1178 3473 c-25 -3 -38 -9 -38 -19 0 -8 5 -14 10 -14 6 0 10 -25 10
-55 0 -30 -4 -55 -10 -55 -5 0 -10 -7 -10 -15 0 -11 11 -15 40 -15 29 0 40 4
40 15 0 8 -5 15 -11 15 -6 0 -9 20 -7 52 2 41 7 54 21 56 15 3 17 -5 17 -67
l0 -71 30 0 c20 0 30 5 30 15 0 8 -5 15 -11 15 -6 0 -9 20 -7 52 2 41 7 54 21
56 15 3 17 -5 17 -67 l0 -71 30 0 c20 0 30 5 30 15 0 8 -4 15 -10 15 -5 0 -10
24 -10 53 0 31 -6 61 -16 75 -16 23 -53 29 -71 11 -8 -8 -13 -8 -17 0 -4 6
-15 10 -24 9 -9 -1 -34 -3 -54 -5z"/>
<path d="M2579 3465 c-31 -16 -50 -62 -42 -97 9 -35 32 -57 73 -69 98 -29 171
82 101 152 -33 33 -87 39 -132 14z m106 -41 c23 -23 15 -66 -16 -83 -57 -32
-118 23 -84 75 19 29 75 33 100 8z"/>
<path d="M3277 3469 c-21 -12 -47 -61 -47 -87 0 -56 79 -99 148 -80 45 12 56
22 49 43 -6 14 -9 14 -37 0 -41 -21 -89 -16 -108 13 l-14 22 76 0 c75 0 76 0
76 25 0 40 -42 75 -87 75 -21 0 -46 -5 -56 -11z m103 -44 c11 -13 5 -15 -44
-15 -31 0 -56 4 -56 9 0 23 82 28 100 6z"/>
<path d="M3497 3469 c-9 -6 -24 -24 -33 -40 -33 -64 16 -134 88 -127 24 2 38
-1 38 -8 0 -13 -31 -24 -67 -24 -14 0 -23 -6 -23 -15 0 -24 85 -20 110 5 17
17 20 33 20 105 0 69 3 85 15 85 8 0 15 6 15 14 0 11 -16 15 -73 14 -40 0 -81
-4 -90 -9z m81 -41 c7 -7 12 -24 12 -38 0 -34 -17 -50 -52 -50 -37 0 -57 38
-40 75 13 27 58 35 80 13z"/>
<path d="M3737 3469 c-21 -12 -47 -61 -47 -87 0 -26 37 -71 68 -83 32 -12 121
7 129 27 10 26 -7 35 -37 19 -43 -22 -86 -19 -105 8 l-16 22 78 5 c76 5 78 6
75 30 -5 55 -92 90 -145 59z m101 -46 c2 -9 -11 -13 -47 -13 -48 0 -67 12 -38
24 22 9 80 1 85 -11z"/>
<path d="M1410 3455 c0 -10 10 -15 30 -15 30 0 30 -1 30 -55 l0 -55 -35 0
c-24 0 -35 -5 -35 -15 0 -12 16 -15 85 -15 69 0 85 3 85 15 0 10 -10 15 -30
15 l-30 0 0 70 0 70 -50 0 c-38 0 -50 -4 -50 -15z"/>
<path d="M1263 2915 c-194 -60 -301 -259 -224 -418 50 -104 163 -158 376 -181
123 -14 179 -48 190 -116 14 -84 -50 -151 -163 -172 -148 -27 -257 45 -280
185 l-7 42 -68 3 -67 3 2 -196 3 -196 70 3 c70 3 70 3 73 33 5 56 9 57 57 21
112 -86 315 -67 434 40 71 63 101 129 101 218 -1 100 -32 162 -110 218 -49 35
-86 46 -233 68 -153 24 -209 45 -232 91 -21 39 -15 101 13 138 46 62 168 96
259 72 80 -22 125 -81 148 -191 l12 -55 59 3 c32 2 62 6 66 10 4 4 4 91 1 195
l-6 187 -63 0 c-68 0 -68 1 -76 -68 -3 -22 -3 -22 -41 9 -77 64 -195 86 -294
54z"/>
<path d="M3303 2915 c-148 -46 -248 -170 -247 -305 2 -177 123 -266 404 -295
89 -9 122 -21 155 -55 37 -39 41 -113 9 -157 -57 -76 -216 -104 -317 -54 -38
18 -53 34 -73 73 -14 28 -29 69 -32 92 l-7 41 -68 3 -67 3 2 -196 3 -196 70 3
c70 3 70 3 73 33 5 56 9 57 57 21 112 -86 315 -67 434 40 71 63 101 129 101
218 -1 100 -32 162 -110 218 -49 35 -86 46 -233 68 -153 24 -209 45 -232 91
-21 39 -15 101 13 138 29 40 96 72 160 78 80 7 139 -11 182 -56 35 -37 70
-120 70 -167 0 -32 14 -36 80 -27 l55 8 0 193 0 192 -67 0 c-73 0 -72 1 -80
-68 -3 -22 -3 -22 -41 9 -77 64 -195 86 -294 54z"/>
<path d="M1930 2831 l0 -71 65 0 65 0 0 -360 0 -360 -65 0 -65 0 0 -70 0 -70
265 0 c290 0 340 6 428 53 98 51 171 158 203 294 20 87 20 260 -1 337 -39 149
-151 273 -271 302 -16 4 -163 9 -326 11 l-298 5 0 -71z m561 -82 c101 -22 170
-117 187 -261 20 -162 -22 -319 -104 -386 -52 -43 -131 -62 -257 -62 l-107 0
0 360 0 360 115 0 c62 0 137 -5 166 -11z"/>
<path d="M2090 1471 c0 -12 6 -21 16 -21 9 0 14 7 12 17 -5 25 -28 28 -28 4z"/>
<path d="M2540 1471 c0 -12 6 -21 16 -21 9 0 14 7 12 17 -5 25 -28 28 -28 4z"/>
<path d="M2950 1470 c0 -5 9 -10 20 -10 18 0 20 -7 20 -65 0 -58 -2 -65 -20
-65 -11 0 -20 -4 -20 -10 0 -5 25 -10 55 -10 30 0 55 5 55 10 0 6 -9 10 -20
10 -18 0 -20 7 -20 75 l0 75 -35 0 c-19 0 -35 -4 -35 -10z"/>
<path d="M1464 1439 c-23 -25 -10 -50 34 -64 42 -15 47 -22 23 -34 -17 -10
-24 -8 -38 9 -24 28 -33 25 -33 -10 0 -29 2 -30 44 -30 49 0 69 17 64 52 -2
17 -12 25 -40 31 -39 9 -50 30 -23 41 9 3 24 -3 35 -14 26 -26 30 -25 30 8 0
26 -3 29 -39 30 -27 1 -43 -4 -57 -19z"/>
<path d="M1620 1446 c0 -8 -6 -17 -12 -20 -10 -5 -10 -7 0 -12 6 -3 12 -22 12
-43 0 -20 5 -42 12 -49 23 -23 99 -8 84 16 -4 7 -15 8 -29 3 -34 -12 -47 -3
-47 35 0 31 3 34 30 34 17 0 30 5 30 10 0 6 -13 10 -30 10 -20 0 -30 5 -30 15
0 8 -4 15 -10 15 -5 0 -10 -6 -10 -14z"/>
<path d="M1920 1446 c0 -8 -6 -17 -12 -20 -10 -5 -10 -7 0 -12 6 -3 12 -22 12
-43 0 -20 5 -42 12 -49 23 -23 99 -8 84 16 -4 7 -15 8 -29 3 -34 -12 -47 -3
-47 35 0 31 3 34 30 34 17 0 30 5 30 10 0 6 -13 10 -30 10 -20 0 -30 5 -30 15
0 8 -4 15 -10 15 -5 0 -10 -6 -10 -14z"/>
<path d="M2370 1446 c0 -8 -6 -17 -12 -20 -10 -5 -10 -7 0 -12 6 -3 12 -22 12
-43 0 -20 5 -42 12 -49 23 -23 99 -8 84 16 -4 7 -15 8 -29 3 -34 -12 -47 -3
-47 35 0 31 3 34 30 34 17 0 30 5 30 10 0 6 -13 10 -30 10 -20 0 -30 5 -30 15
0 8 -4 15 -10 15 -5 0 -10 -6 -10 -14z"/>
<path d="M3271 1442 c-6 -11 -8 -22 -5 -25 3 -3 0 -21 -7 -41 -17 -48 -3 -64
61 -64 54 0 59 4 33 24 -17 13 -17 15 0 28 24 19 21 29 -8 23 -18 -3 -30 2
-40 16 -18 25 -11 37 16 30 16 -4 20 -2 17 8 -7 23 -55 23 -67 1z m33 -87 c3
-9 0 -15 -9 -15 -8 0 -15 7 -15 15 0 8 4 15 9 15 5 0 11 -7 15 -15z"/>
<path d="M1763 1423 c-26 -10 -12 -25 17 -21 17 3 33 1 36 -4 3 -4 -4 -8 -16
-8 -50 0 -79 -42 -47 -68 15 -13 117 -14 117 -1 0 5 -4 9 -10 9 -5 0 -10 17
-10 38 0 21 -5 43 -12 50 -12 12 -52 15 -75 5z m57 -67 c0 -18 -30 -30 -43
-17 -5 5 -6 14 -3 20 10 16 46 13 46 -3z"/>
<path d="M2060 1420 c0 -5 7 -10 15 -10 11 0 15 -11 15 -40 0 -33 -3 -40 -20
-40 -11 0 -20 -4 -20 -10 0 -5 25 -10 55 -10 30 0 55 5 55 10 0 6 -9 10 -20
10 -17 0 -20 7 -20 50 0 49 -1 50 -30 50 -16 0 -30 -4 -30 -10z"/>
<path d="M2209 1414 c-18 -22 0 -48 37 -52 39 -5 51 -18 24 -27 -14 -4 -28 -1
-39 9 -24 22 -31 20 -31 -7 0 -20 5 -24 36 -25 49 -2 76 14 72 41 -2 18 -11
23 -41 25 -24 2 -37 8 -34 15 4 13 21 14 50 2 13 -5 17 -2 17 12 0 16 -8 20
-39 21 -25 1 -44 -4 -52 -14z"/>
<path d="M2510 1420 c0 -5 7 -10 15 -10 11 0 15 -11 15 -40 0 -33 -3 -40 -20
-40 -11 0 -20 -4 -20 -10 0 -5 25 -10 55 -10 30 0 55 5 55 10 0 6 -9 10 -20
10 -17 0 -20 7 -20 50 0 49 -1 50 -30 50 -16 0 -30 -4 -30 -10z"/>
<path d="M2674 1422 c-6 -4 -16 -17 -23 -29 -12 -24 -1 -59 23 -75 18 -12 61
-9 82 6 26 19 10 32 -22 18 -49 -23 -92 32 -45 58 21 10 51 4 51 -11 0 -5 5
-9 10 -9 6 0 10 11 10 23 0 20 -5 24 -37 25 -21 1 -43 -2 -49 -6z"/>
<path d="M2813 1423 c-26 -10 -12 -25 17 -21 17 3 33 1 36 -4 3 -4 -4 -8 -16
-8 -50 0 -79 -42 -47 -68 15 -13 117 -14 117 -1 0 5 -4 9 -10 9 -5 0 -10 17
-10 38 0 21 -5 43 -12 50 -12 12 -52 15 -75 5z m57 -67 c0 -18 -30 -30 -43
-17 -5 5 -6 14 -3 20 10 16 46 13 46 -3z"/>
<path d="M2540 1181 c0 -12 6 -21 16 -21 9 0 14 7 12 17 -5 25 -28 28 -28 4z"/>
<path d="M1430 1160 c0 -5 5 -10 10 -10 6 0 10 -25 10 -55 0 -30 -4 -55 -10
-55 -5 0 -10 -4 -10 -10 0 -5 24 -10 54 -10 62 0 86 21 86 75 0 54 -24 75 -86
75 -30 0 -54 -4 -54 -10z m100 -25 c28 -33 7 -95 -31 -95 -16 0 -19 8 -19 55
0 47 3 55 19 55 10 0 24 -7 31 -15z"/>
<path d="M1770 1156 c0 -8 -6 -17 -12 -20 -10 -5 -10 -7 0 -12 6 -3 12 -22 12
-43 0 -20 5 -42 12 -49 23 -23 99 -8 84 16 -4 7 -15 8 -29 3 -34 -12 -47 -3
-47 35 0 31 3 34 30 34 17 0 30 5 30 10 0 6 -13 10 -30 10 -20 0 -30 5 -30 15
0 8 -4 15 -10 15 -5 0 -10 -6 -10 -14z"/>
<path d="M2216 1154 c-9 -8 -16 -22 -16 -29 0 -17 38 -45 62 -45 26 0 31 -18
8 -30 -16 -8 -23 -7 -37 10 -24 28 -33 25 -33 -10 0 -29 2 -30 44 -30 49 0 69
17 64 52 -2 17 -12 25 -40 31 -39 9 -50 30 -23 41 9 3 24 -3 35 -14 26 -26 30
-25 30 8 0 26 -3 29 -39 30 -25 1 -46 -4 -55 -14z"/>
<path d="M1613 1133 c-26 -10 -12 -25 17 -21 17 3 33 1 36 -4 3 -4 -4 -8 -16
-8 -50 0 -79 -42 -47 -68 15 -13 117 -14 117 -1 0 5 -4 9 -10 9 -5 0 -10 17
-10 38 0 21 -5 43 -12 50 -12 12 -52 15 -75 5z m57 -67 c0 -18 -30 -30 -43
-17 -5 5 -6 14 -3 20 10 16 46 13 46 -3z"/>
<path d="M1913 1133 c-26 -10 -12 -25 17 -21 17 3 33 1 36 -4 3 -4 -4 -8 -16
-8 -49 0 -79 -42 -47 -68 15 -12 117 -13 117 -1 0 5 -4 9 -10 9 -5 0 -10 17
-10 38 0 21 -5 43 -12 50 -12 12 -52 15 -75 5z m67 -63 c0 -16 -41 -33 -52
-22 -6 6 -7 15 -4 21 9 14 56 15 56 1z"/>
<path d="M2374 1132 c-6 -4 -16 -17 -23 -29 -12 -24 -1 -59 23 -75 18 -12 61
-9 82 6 26 19 10 32 -22 18 -49 -23 -92 32 -45 58 21 10 51 4 51 -11 0 -5 5
-9 10 -9 6 0 10 11 10 23 0 20 -5 24 -37 25 -21 1 -43 -2 -49 -6z"/>
<path d="M2510 1130 c0 -5 7 -10 15 -10 11 0 15 -11 15 -40 0 -33 -3 -40 -20
-40 -11 0 -20 -4 -20 -10 0 -5 25 -10 55 -10 30 0 55 5 55 10 0 6 -9 10 -20
10 -17 0 -20 7 -20 50 0 49 -1 50 -30 50 -16 0 -30 -4 -30 -10z"/>
<path d="M2674 1132 c-6 -4 -16 -17 -23 -29 -14 -27 3 -70 31 -79 31 -9 88 5
88 22 0 15 -11 14 -55 -3 -6 -2 -19 3 -30 11 -19 14 -16 15 33 16 56 0 63 9
36 48 -15 22 -57 30 -80 14z m56 -27 c11 -13 7 -15 -26 -15 -36 1 -38 2 -20
15 25 19 31 19 46 0z"/>
<path d="M2780 1129 c0 -5 5 -9 10 -9 6 0 10 -18 10 -40 0 -22 -4 -40 -10 -40
-5 0 -10 -4 -10 -10 0 -5 16 -10 35 -10 19 0 35 5 35 10 0 6 -4 10 -10 10 -5
0 -10 15 -10 34 0 25 5 35 19 39 11 3 22 2 25 -1 10 -10 6 -72 -4 -72 -5 0
-10 -4 -10 -10 0 -5 16 -10 35 -10 19 0 35 5 35 10 0 6 -4 10 -10 10 -5 0 -10
11 -10 24 0 14 -4 36 -9 50 -9 22 -15 25 -65 25 -31 0 -56 -5 -56 -10z"/>
<path d="M2974 1132 c-6 -4 -16 -17 -23 -29 -12 -24 -1 -59 23 -75 18 -12 61
-9 82 6 26 19 10 32 -22 18 -49 -23 -92 32 -45 58 21 10 51 4 51 -11 0 -5 5
-9 10 -9 6 0 10 11 10 23 0 20 -5 24 -37 25 -21 1 -43 -2 -49 -6z"/>
<path d="M3124 1132 c-6 -4 -16 -17 -23 -29 -14 -27 3 -70 31 -79 31 -9 88 5
88 22 0 15 -11 14 -55 -3 -6 -2 -19 3 -30 11 -19 14 -16 15 33 16 56 0 63 9
36 48 -15 22 -57 30 -80 14z m56 -27 c11 -13 7 -15 -26 -15 -36 1 -38 2 -20
15 25 19 31 19 46 0z"/>
<path d="M3259 1124 c-19 -23 1 -48 40 -52 33 -3 41 -19 16 -29 -9 -3 -24 2
-34 11 -24 22 -31 20 -31 -8 0 -22 4 -24 46 -22 50 1 72 20 61 50 -4 11 -18
16 -43 16 -24 0 -34 4 -31 13 4 13 21 14 50 2 13 -5 17 -2 17 12 0 16 -8 20
-39 21 -25 1 -44 -4 -52 -14z"/>
</g>
</svg>
